<mxfile host="app.diagrams.net" agent="Mozilla/5.0 (Windows NT 10.0; Win64; x64) AppleWebKit/537.36 (KHTML, like Gecko) Chrome/132.0.0.0 Safari/537.36 OPR/117.0.0.0" version="26.2.14">
  <diagram name="Page-1" id="e7e014a7-5840-1c2e-5031-d8a46d1fe8dd">
    <mxGraphModel dx="1039" dy="623" grid="0" gridSize="10" guides="1" tooltips="1" connect="1" arrows="1" fold="1" page="1" pageScale="1" pageWidth="1169" pageHeight="826" background="none" math="0" shadow="0">
      <root>
        <mxCell id="0" />
        <mxCell id="1" parent="0" />
        <mxCell id="4liQRK5ihqxxpQc1KS3g-41" value="Utilisateurs" style="swimlane;whiteSpace=wrap;movable=1;resizable=1;rotatable=1;deletable=1;editable=1;locked=0;connectable=1;" vertex="1" parent="1">
          <mxGeometry x="164.5" y="128" width="262.5" height="570" as="geometry" />
        </mxCell>
        <mxCell id="4liQRK5ihqxxpQc1KS3g-42" value="" style="ellipse;shape=startState;fillColor=#000000;strokeColor=#000000;" vertex="1" parent="4liQRK5ihqxxpQc1KS3g-41">
          <mxGeometry x="100" y="28" width="30" height="30" as="geometry" />
        </mxCell>
        <mxCell id="4liQRK5ihqxxpQc1KS3g-43" value="" style="edgeStyle=elbowEdgeStyle;elbow=horizontal;verticalAlign=bottom;endArrow=open;endSize=8;strokeColor=#000000;endFill=1;rounded=0" edge="1" parent="4liQRK5ihqxxpQc1KS3g-41" source="4liQRK5ihqxxpQc1KS3g-42">
          <mxGeometry x="100" y="40" as="geometry">
            <mxPoint x="115.5" y="98" as="targetPoint" />
          </mxGeometry>
        </mxCell>
        <mxCell id="4liQRK5ihqxxpQc1KS3g-44" style="edgeStyle=orthogonalEdgeStyle;rounded=0;orthogonalLoop=1;jettySize=auto;html=1;" edge="1" parent="4liQRK5ihqxxpQc1KS3g-41" source="4liQRK5ihqxxpQc1KS3g-45">
          <mxGeometry relative="1" as="geometry">
            <mxPoint x="364.41656494140625" y="119" as="targetPoint" />
          </mxGeometry>
        </mxCell>
        <mxCell id="4liQRK5ihqxxpQc1KS3g-45" value="" style="rounded=1;whiteSpace=wrap;html=1;" vertex="1" parent="4liQRK5ihqxxpQc1KS3g-41">
          <mxGeometry x="55" y="100" width="120" height="38" as="geometry" />
        </mxCell>
        <mxCell id="4liQRK5ihqxxpQc1KS3g-46" value="&lt;b&gt;Demande&amp;nbsp; d&#39;authentification&lt;/b&gt;" style="text;html=1;align=center;verticalAlign=middle;whiteSpace=wrap;rounded=0;" vertex="1" parent="4liQRK5ihqxxpQc1KS3g-41">
          <mxGeometry x="85" y="104" width="60" height="30" as="geometry" />
        </mxCell>
        <mxCell id="4liQRK5ihqxxpQc1KS3g-47" style="edgeStyle=orthogonalEdgeStyle;rounded=0;orthogonalLoop=1;jettySize=auto;html=1;" edge="1" parent="4liQRK5ihqxxpQc1KS3g-41" source="4liQRK5ihqxxpQc1KS3g-48">
          <mxGeometry relative="1" as="geometry">
            <mxPoint x="115" y="231.00521087646484" as="targetPoint" />
          </mxGeometry>
        </mxCell>
        <mxCell id="4liQRK5ihqxxpQc1KS3g-48" value="" style="rounded=1;whiteSpace=wrap;html=1;" vertex="1" parent="4liQRK5ihqxxpQc1KS3g-41">
          <mxGeometry x="55" y="164" width="120" height="39" as="geometry" />
        </mxCell>
        <mxCell id="4liQRK5ihqxxpQc1KS3g-49" value="&lt;b&gt;Remplir le formulaire&lt;/b&gt;" style="text;html=1;align=center;verticalAlign=middle;whiteSpace=wrap;rounded=0;" vertex="1" parent="4liQRK5ihqxxpQc1KS3g-41">
          <mxGeometry x="76" y="168" width="78" height="30" as="geometry" />
        </mxCell>
        <mxCell id="4liQRK5ihqxxpQc1KS3g-50" style="edgeStyle=orthogonalEdgeStyle;rounded=0;orthogonalLoop=1;jettySize=auto;html=1;" edge="1" parent="4liQRK5ihqxxpQc1KS3g-41" source="4liQRK5ihqxxpQc1KS3g-51">
          <mxGeometry relative="1" as="geometry">
            <mxPoint x="350.5" y="253" as="targetPoint" />
          </mxGeometry>
        </mxCell>
        <mxCell id="4liQRK5ihqxxpQc1KS3g-51" value="" style="rounded=1;whiteSpace=wrap;html=1;" vertex="1" parent="4liQRK5ihqxxpQc1KS3g-41">
          <mxGeometry x="55" y="233" width="120" height="39" as="geometry" />
        </mxCell>
        <mxCell id="4liQRK5ihqxxpQc1KS3g-52" value="&lt;b&gt;Soumettre le formulaire&lt;/b&gt;" style="text;html=1;align=center;verticalAlign=middle;whiteSpace=wrap;rounded=0;" vertex="1" parent="4liQRK5ihqxxpQc1KS3g-41">
          <mxGeometry x="76" y="237" width="78" height="30" as="geometry" />
        </mxCell>
        <mxCell id="4liQRK5ihqxxpQc1KS3g-53" value="Système" style="swimlane;whiteSpace=wrap;movable=1;resizable=1;rotatable=1;deletable=1;editable=1;locked=0;connectable=1;" vertex="1" parent="1">
          <mxGeometry x="427" y="128" width="415" height="570" as="geometry" />
        </mxCell>
        <mxCell id="4liQRK5ihqxxpQc1KS3g-54" value="" style="rounded=1;whiteSpace=wrap;html=1;" vertex="1" parent="4liQRK5ihqxxpQc1KS3g-53">
          <mxGeometry x="88.5" y="100" width="171.5" height="38" as="geometry" />
        </mxCell>
        <mxCell id="4liQRK5ihqxxpQc1KS3g-55" value="&lt;b&gt;Afficher formulaire d&#39;authentification&lt;/b&gt;" style="text;html=1;align=center;verticalAlign=middle;whiteSpace=wrap;rounded=0;" vertex="1" parent="4liQRK5ihqxxpQc1KS3g-53">
          <mxGeometry x="115.5" y="105" width="124.5" height="30" as="geometry" />
        </mxCell>
        <mxCell id="4liQRK5ihqxxpQc1KS3g-56" value="" style="rounded=1;whiteSpace=wrap;html=1;" vertex="1" parent="4liQRK5ihqxxpQc1KS3g-53">
          <mxGeometry x="98.5" y="232" width="138.5" height="38" as="geometry" />
        </mxCell>
        <mxCell id="4liQRK5ihqxxpQc1KS3g-57" style="edgeStyle=orthogonalEdgeStyle;rounded=0;orthogonalLoop=1;jettySize=auto;html=1;" edge="1" parent="4liQRK5ihqxxpQc1KS3g-53" source="4liQRK5ihqxxpQc1KS3g-58">
          <mxGeometry relative="1" as="geometry">
            <mxPoint x="165.75" y="301.00521087646484" as="targetPoint" />
          </mxGeometry>
        </mxCell>
        <mxCell id="4liQRK5ihqxxpQc1KS3g-58" value="&lt;b&gt;Vérifier informations saisir&lt;/b&gt;" style="text;html=1;align=center;verticalAlign=middle;whiteSpace=wrap;rounded=0;" vertex="1" parent="4liQRK5ihqxxpQc1KS3g-53">
          <mxGeometry x="103.5" y="237" width="124.5" height="30" as="geometry" />
        </mxCell>
        <mxCell id="4liQRK5ihqxxpQc1KS3g-59" style="edgeStyle=orthogonalEdgeStyle;rounded=0;orthogonalLoop=1;jettySize=auto;html=1;entryX=0.426;entryY=-0.027;entryDx=0;entryDy=0;entryPerimeter=0;" edge="1" parent="4liQRK5ihqxxpQc1KS3g-53" source="4liQRK5ihqxxpQc1KS3g-60" target="4liQRK5ihqxxpQc1KS3g-67">
          <mxGeometry relative="1" as="geometry">
            <mxPoint x="71.083251953125" y="352.67186737060547" as="targetPoint" />
          </mxGeometry>
        </mxCell>
        <mxCell id="4liQRK5ihqxxpQc1KS3g-60" value="" style="rhombus;whiteSpace=wrap;html=1;" vertex="1" parent="4liQRK5ihqxxpQc1KS3g-53">
          <mxGeometry x="142.88" y="302" width="45.75" height="43" as="geometry" />
        </mxCell>
        <mxCell id="4liQRK5ihqxxpQc1KS3g-61" value="" style="rounded=1;whiteSpace=wrap;html=1;" vertex="1" parent="4liQRK5ihqxxpQc1KS3g-53">
          <mxGeometry x="194" y="353" width="108.5" height="39" as="geometry" />
        </mxCell>
        <mxCell id="4liQRK5ihqxxpQc1KS3g-62" style="edgeStyle=orthogonalEdgeStyle;rounded=0;orthogonalLoop=1;jettySize=auto;html=1;entryX=0.572;entryY=0.013;entryDx=0;entryDy=0;entryPerimeter=0;" edge="1" parent="4liQRK5ihqxxpQc1KS3g-53" source="4liQRK5ihqxxpQc1KS3g-60" target="4liQRK5ihqxxpQc1KS3g-61">
          <mxGeometry relative="1" as="geometry" />
        </mxCell>
        <mxCell id="4liQRK5ihqxxpQc1KS3g-64" value="&lt;b&gt;Message d&#39;erreur&lt;/b&gt;" style="text;html=1;align=center;verticalAlign=middle;whiteSpace=wrap;rounded=0;" vertex="1" parent="4liQRK5ihqxxpQc1KS3g-53">
          <mxGeometry x="194" y="357.5" width="110" height="30" as="geometry" />
        </mxCell>
        <mxCell id="4liQRK5ihqxxpQc1KS3g-65" value="[Informations correcte]" style="text;html=1;align=center;verticalAlign=middle;whiteSpace=wrap;rounded=0;" vertex="1" parent="4liQRK5ihqxxpQc1KS3g-53">
          <mxGeometry x="18" y="277" width="124" height="30" as="geometry" />
        </mxCell>
        <mxCell id="4liQRK5ihqxxpQc1KS3g-66" value="[Informations incorrecte]" style="text;html=1;align=center;verticalAlign=middle;whiteSpace=wrap;rounded=0;" vertex="1" parent="4liQRK5ihqxxpQc1KS3g-53">
          <mxGeometry x="188.63" y="277" width="124" height="30" as="geometry" />
        </mxCell>
        <mxCell id="4liQRK5ihqxxpQc1KS3g-67" value="" style="rounded=1;whiteSpace=wrap;html=1;" vertex="1" parent="4liQRK5ihqxxpQc1KS3g-53">
          <mxGeometry x="15" y="422" width="120" height="37" as="geometry" />
        </mxCell>
        <mxCell id="4liQRK5ihqxxpQc1KS3g-68" value="&lt;b&gt;Envoyer les données au SGDB&lt;/b&gt;" style="text;html=1;align=center;verticalAlign=middle;whiteSpace=wrap;rounded=0;" vertex="1" parent="4liQRK5ihqxxpQc1KS3g-53">
          <mxGeometry x="25" y="428" width="110" height="30" as="geometry" />
        </mxCell>
        <mxCell id="4liQRK5ihqxxpQc1KS3g-92" style="edgeStyle=orthogonalEdgeStyle;rounded=0;orthogonalLoop=1;jettySize=auto;html=1;entryX=1;entryY=0.25;entryDx=0;entryDy=0;" edge="1" parent="4liQRK5ihqxxpQc1KS3g-53" source="4liQRK5ihqxxpQc1KS3g-89" target="4liQRK5ihqxxpQc1KS3g-54">
          <mxGeometry relative="1" as="geometry">
            <mxPoint x="393.583251953125" y="126.00521087646484" as="targetPoint" />
            <Array as="points">
              <mxPoint x="386" y="433" />
              <mxPoint x="386" y="110" />
            </Array>
          </mxGeometry>
        </mxCell>
        <mxCell id="4liQRK5ihqxxpQc1KS3g-89" value="" style="rhombus;whiteSpace=wrap;html=1;" vertex="1" parent="4liQRK5ihqxxpQc1KS3g-53">
          <mxGeometry x="232.75" y="417" width="31" height="32.84" as="geometry" />
        </mxCell>
        <mxCell id="4liQRK5ihqxxpQc1KS3g-88" style="edgeStyle=orthogonalEdgeStyle;rounded=0;orthogonalLoop=1;jettySize=auto;html=1;" edge="1" parent="4liQRK5ihqxxpQc1KS3g-53" source="4liQRK5ihqxxpQc1KS3g-64" target="4liQRK5ihqxxpQc1KS3g-89">
          <mxGeometry relative="1" as="geometry">
            <mxPoint x="249" y="411.8385238647461" as="targetPoint" />
          </mxGeometry>
        </mxCell>
        <mxCell id="4liQRK5ihqxxpQc1KS3g-91" value="[Nombre d&#39;essaie]" style="text;html=1;align=center;verticalAlign=middle;whiteSpace=wrap;rounded=0;" vertex="1" parent="4liQRK5ihqxxpQc1KS3g-53">
          <mxGeometry x="249" y="395" width="124" height="27" as="geometry" />
        </mxCell>
        <mxCell id="4liQRK5ihqxxpQc1KS3g-93" value="&lt;b&gt;&amp;lt;=3&lt;/b&gt;" style="text;html=1;align=center;verticalAlign=middle;whiteSpace=wrap;rounded=0;" vertex="1" parent="4liQRK5ihqxxpQc1KS3g-53">
          <mxGeometry x="281" y="417" width="26" height="17" as="geometry" />
        </mxCell>
        <mxCell id="4liQRK5ihqxxpQc1KS3g-69" style="edgeStyle=orthogonalEdgeStyle;rounded=0;orthogonalLoop=1;jettySize=auto;html=1;entryX=1;entryY=0.5;entryDx=0;entryDy=0;" edge="1" parent="1" source="4liQRK5ihqxxpQc1KS3g-54" target="4liQRK5ihqxxpQc1KS3g-48">
          <mxGeometry relative="1" as="geometry">
            <Array as="points">
              <mxPoint x="619" y="311" />
            </Array>
          </mxGeometry>
        </mxCell>
      </root>
    </mxGraphModel>
  </diagram>
</mxfile>
